
<svg width="46" height="57" viewBox="0 0 46 57" fill="none" xmlns="http://www.w3.org/2000/svg">
<mask id="path-1-outside-1_3_164" maskUnits="userSpaceOnUse" x="0" y="0" width="46" height="57" fill="black">
<rect fill="white" width="46" height="57"/>
<path fill-rule="evenodd" clip-rule="evenodd" d="M23 2L1 11.7778V26.4444C1 40.0111 10.3867 52.6978 23 55.7778C35.6133 52.6978 45 40.0111 45 26.4444V11.7778L23 2ZM40.1111 26.4444C40.1111 37.4933 32.8267 47.6867 23 50.7178C13.1733 47.6867 5.88889 37.4933 5.88889 26.4444V14.9556L23 7.35333L40.1111 14.9556V26.4444ZM24.512 23.4258C23.6644 23.1668 22.7634 23.1365 21.9003 23.3379C21.0372 23.5393 20.2427 23.9654 19.5973 24.5728C18.952 25.1803 18.4787 25.9475 18.2254 26.7968C17.9722 27.6462 17.9479 28.5473 18.1552 29.409L16.877 29.7165L15.5861 30.027L14.3079 30.3345L14.3077 30.3335C14.0975 29.4592 14.0206 28.5623 14.0763 27.6725C14.1187 26.9951 14.2378 26.322 14.4334 25.6661C14.886 24.1482 15.7319 22.777 16.8852 21.6914C18.0386 20.6058 19.4585 19.8444 21.001 19.4844C21.6675 19.3289 22.3466 19.2507 23.0253 19.2493C23.9172 19.2476 24.8082 19.3787 25.6684 19.6415L25.2842 20.8988L24.8962 22.1685L24.512 23.4258ZM24.167 36.9186C23.2116 37.108 22.2218 37.0157 21.3179 36.653L20.8283 37.8731L20.3339 39.1054L19.8444 40.3255C20.68 40.6608 21.5567 40.8667 22.4447 40.9406C23.2734 41.0096 24.112 40.9635 24.9362 40.8002C26.6437 40.4618 28.216 39.6347 29.4622 38.4195C30.7084 37.2042 31.5747 35.6531 31.9558 33.9547C32.1398 33.1349 32.2069 32.2977 32.1588 31.4675C32.1072 30.578 31.9233 29.6964 31.6091 28.8526L30.3771 29.3113L29.1328 29.7746L27.9008 30.2334C28.2407 31.1461 28.3081 32.1379 28.0948 33.0883C27.8815 34.0386 27.3968 34.9065 26.6995 35.5865C26.0022 36.2665 25.1224 36.7293 24.167 36.9186Z"/>
</mask>
<path fill-rule="evenodd" clip-rule="evenodd" d="M23 2L1 11.7778V26.4444C1 40.0111 10.3867 52.6978 23 55.7778C35.6133 52.6978 45 40.0111 45 26.4444V11.7778L23 2ZM40.1111 26.4444C40.1111 37.4933 32.8267 47.6867 23 50.7178C13.1733 47.6867 5.88889 37.4933 5.88889 26.4444V14.9556L23 7.35333L40.1111 14.9556V26.4444ZM24.512 23.4258C23.6644 23.1668 22.7634 23.1365 21.9003 23.3379C21.0372 23.5393 20.2427 23.9654 19.5973 24.5728C18.952 25.1803 18.4787 25.9475 18.2254 26.7968C17.9722 27.6462 17.9479 28.5473 18.1552 29.409L16.877 29.7165L15.5861 30.027L14.3079 30.3345L14.3077 30.3335C14.0975 29.4592 14.0206 28.5623 14.0763 27.6725C14.1187 26.9951 14.2378 26.322 14.4334 25.6661C14.886 24.1482 15.7319 22.777 16.8852 21.6914C18.0386 20.6058 19.4585 19.8444 21.001 19.4844C21.6675 19.3289 22.3466 19.2507 23.0253 19.2493C23.9172 19.2476 24.8082 19.3787 25.6684 19.6415L25.2842 20.8988L24.8962 22.1685L24.512 23.4258ZM24.167 36.9186C23.2116 37.108 22.2218 37.0157 21.3179 36.653L20.8283 37.8731L20.3339 39.1054L19.8444 40.3255C20.68 40.6608 21.5567 40.8667 22.4447 40.9406C23.2734 41.0096 24.112 40.9635 24.9362 40.8002C26.6437 40.4618 28.216 39.6347 29.4622 38.4195C30.7084 37.2042 31.5747 35.6531 31.9558 33.9547C32.1398 33.1349 32.2069 32.2977 32.1588 31.4675C32.1072 30.578 31.9233 29.6964 31.6091 28.8526L30.3771 29.3113L29.1328 29.7746L27.9008 30.2334C28.2407 31.1461 28.3081 32.1379 28.0948 33.0883C27.8815 34.0386 27.3968 34.9065 26.6995 35.5865C26.0022 36.2665 25.1224 36.7293 24.167 36.9186Z" fill="#0166F6"/>
<path d="M1 11.7778L0.593862 10.864L0 11.1279V11.7778H1ZM23 2L23.4061 1.08619L23 0.905682L22.5939 1.08619L23 2ZM23 55.7778L22.7628 56.7492L23 56.8072L23.2372 56.7492L23 55.7778ZM45 11.7778H46V11.1279L45.4061 10.864L45 11.7778ZM23 50.7178L22.7052 51.6734L23 51.7643L23.2948 51.6734L23 50.7178ZM5.88889 14.9556L5.48287 14.0417L4.88889 14.3056V14.9556H5.88889ZM23 7.35333L23.406 6.43947L23 6.25908L22.594 6.43947L23 7.35333ZM40.1111 14.9556H41.1111V14.3056L40.5171 14.0417L40.1111 14.9556ZM24.512 23.4258L24.2197 24.3822L25.1761 24.6744L25.4683 23.7181L24.512 23.4258ZM19.5973 24.5728L18.912 23.8446L18.912 23.8446L19.5973 24.5728ZM18.2254 26.7968L17.2671 26.5111V26.5111L18.2254 26.7968ZM18.1552 29.409L18.3891 30.3813L19.3613 30.1474L19.1275 29.1752L18.1552 29.409ZM16.877 29.7165L16.6431 28.7442H16.6431L16.877 29.7165ZM15.5861 30.027L15.82 30.9993H15.82L15.5861 30.027ZM14.3079 30.3345L13.3355 30.5678L13.5689 31.5408L14.5418 31.3068L14.3079 30.3345ZM14.3077 30.3335L15.2801 30.1001L15.28 30.0997L14.3077 30.3335ZM14.0763 27.6725L15.0743 27.7349V27.7349L14.0763 27.6725ZM14.4334 25.6661L15.3917 25.9518L15.3917 25.9518L14.4334 25.6661ZM16.8852 21.6914L17.5706 22.4196V22.4196L16.8852 21.6914ZM21.001 19.4844L21.2282 20.4583L21.001 19.4844ZM23.0253 19.2493L23.0233 18.2493H23.0233L23.0253 19.2493ZM25.6684 19.6415L26.6247 19.9338L26.917 18.9774L25.9607 18.6852L25.6684 19.6415ZM25.2842 20.8988L24.3279 20.6066L24.3278 20.6066L25.2842 20.8988ZM24.8962 22.1685L23.9398 21.8763L24.8962 22.1685ZM21.3179 36.653L21.6902 35.7249L20.7622 35.3526L20.3898 36.2807L21.3179 36.653ZM24.167 36.9186L24.3614 37.8996L24.167 36.9186ZM20.8283 37.8731L21.7564 38.2455L20.8283 37.8731ZM20.3339 39.1054L19.4059 38.733L20.3339 39.1054ZM19.8444 40.3255L18.9163 39.9531L18.544 40.8812L19.472 41.2536L19.8444 40.3255ZM22.4447 40.9406L22.3618 41.9372H22.3618L22.4447 40.9406ZM24.9362 40.8002L25.1306 41.7811L24.9362 40.8002ZM29.4622 38.4195L28.764 37.7035L29.4622 38.4195ZM31.9558 33.9547L32.9315 34.1737L31.9558 33.9547ZM32.1588 31.4675L33.1571 31.4097V31.4096L32.1588 31.4675ZM31.6091 28.8526L32.5463 28.5036L32.1973 27.5665L31.2602 27.9154L31.6091 28.8526ZM30.3771 29.3113L30.0281 28.3742L30.3771 29.3113ZM29.1328 29.7746L28.7839 28.8375L29.1328 29.7746ZM27.9008 30.2334L27.5519 29.2962L26.6147 29.6452L26.9637 30.5823L27.9008 30.2334ZM26.6995 35.5865L26.0013 34.8706H26.0013L26.6995 35.5865ZM1.40614 12.6916L23.4061 2.91381L22.5939 1.08619L0.593862 10.864L1.40614 12.6916ZM2 26.4444V11.7778H0V26.4444H2ZM23.2372 54.8063C11.1107 51.8452 2 39.5917 2 26.4444H0C0 40.4305 9.66261 53.5504 22.7628 56.7492L23.2372 54.8063ZM44 26.4444C44 39.5917 34.8893 51.8452 22.7628 54.8063L23.2372 56.7492C36.3374 53.5504 46 40.4305 46 26.4444H44ZM44 11.7778V26.4444H46V11.7778H44ZM22.5939 2.91381L44.5939 12.6916L45.4061 10.864L23.4061 1.08619L22.5939 2.91381ZM23.2948 51.6734C33.5717 48.5034 41.1111 37.8987 41.1111 26.4444H39.1111C39.1111 37.0879 32.0816 46.87 22.7052 49.7622L23.2948 51.6734ZM4.88889 26.4444C4.88889 37.8987 12.4283 48.5034 22.7052 51.6734L23.2948 49.7622C13.9184 46.87 6.88889 37.0879 6.88889 26.4444H4.88889ZM4.88889 14.9556V26.4444H6.88889V14.9556H4.88889ZM22.594 6.43947L5.48287 14.0417L6.29491 15.8694L23.406 8.2672L22.594 6.43947ZM40.5171 14.0417L23.406 6.43947L22.594 8.2672L39.7051 15.8694L40.5171 14.0417ZM41.1111 26.4444V14.9556H39.1111V26.4444H41.1111ZM22.1276 24.3117C22.819 24.1504 23.5407 24.1747 24.2197 24.3822L24.8042 22.4695C23.788 22.1589 22.7078 22.1226 21.673 22.3641L22.1276 24.3117ZM20.2827 25.301C20.7997 24.8144 21.4362 24.4731 22.1276 24.3117L21.673 22.3641C20.6382 22.6056 19.6857 23.1164 18.912 23.8446L20.2827 25.301ZM19.1837 27.0826C19.3866 26.4022 19.7657 25.7876 20.2827 25.301L18.912 23.8446C18.1382 24.5729 17.5708 25.4928 17.2671 26.5111L19.1837 27.0826ZM19.1275 29.1752C18.9614 28.4849 18.9808 27.763 19.1837 27.0826L17.2671 26.5111C16.9635 27.5294 16.9344 28.6098 17.1829 29.6429L19.1275 29.1752ZM17.1109 30.6888L18.3891 30.3813L17.9213 28.4368L16.6431 28.7442L17.1109 30.6888ZM15.82 30.9993L17.1109 30.6888L16.6431 28.7442L15.3522 29.0548L15.82 30.9993ZM14.5418 31.3068L15.82 30.9993L15.3522 29.0548L14.074 29.3622L14.5418 31.3068ZM13.3353 30.5668L13.3355 30.5678L15.2803 30.1012L15.2801 30.1001L13.3353 30.5668ZM13.0782 27.61C13.0164 28.5989 13.1018 29.5957 13.3354 30.5672L15.28 30.0997C15.0932 29.3228 15.0249 28.5257 15.0743 27.7349L13.0782 27.61ZM13.4751 25.3803C13.2577 26.1092 13.1253 26.8573 13.0782 27.61L15.0743 27.7349C15.112 27.133 15.2179 26.5347 15.3917 25.9518L13.4751 25.3803ZM16.1998 20.9632C14.9181 22.1696 13.9781 23.6935 13.4751 25.3803L15.3917 25.9518C15.7939 24.6029 16.5456 23.3843 17.5706 22.4196L16.1998 20.9632ZM20.7737 18.5106C19.0595 18.9106 17.4816 19.7568 16.1998 20.9632L17.5706 22.4196C18.5956 21.4548 19.8575 20.7782 21.2282 20.4583L20.7737 18.5106ZM23.0233 18.2493C22.2691 18.2508 21.5144 18.3377 20.7737 18.5106L21.2282 20.4583C21.8206 20.32 22.4241 20.2505 23.0272 20.2493L23.0233 18.2493ZM25.9607 18.6852C25.0047 18.3931 24.0145 18.2474 23.0233 18.2493L23.0272 20.2493C23.8199 20.2478 24.6117 20.3643 25.3762 20.5979L25.9607 18.6852ZM26.2405 21.1911L26.6247 19.9338L24.7121 19.3493L24.3279 20.6066L26.2405 21.1911ZM25.8525 22.4608L26.2405 21.1911L24.3278 20.6066L23.9398 21.8763L25.8525 22.4608ZM25.4683 23.7181L25.8525 22.4608L23.9398 21.8763L23.5556 23.1336L25.4683 23.7181ZM20.9455 37.5811C22.0292 38.0159 23.216 38.1266 24.3614 37.8996L23.9726 35.9377C23.2073 36.0894 22.4144 36.0155 21.6902 35.7249L20.9455 37.5811ZM21.7564 38.2455L22.246 37.0254L20.3898 36.2807L19.9003 37.5008L21.7564 38.2455ZM21.262 39.4777L21.7564 38.2455L19.9003 37.5008L19.4059 38.733L21.262 39.4777ZM20.7725 40.6979L21.262 39.4777L19.4059 38.733L18.9163 39.9531L20.7725 40.6979ZM22.5276 39.9441C21.7385 39.8784 20.9594 39.6954 20.2168 39.3974L19.472 41.2536C20.4007 41.6262 21.375 41.8551 22.3618 41.9372L22.5276 39.9441ZM24.7418 39.8193C24.0094 39.9644 23.2641 40.0054 22.5276 39.9441L22.3618 41.9372C23.2827 42.0138 24.2147 41.9626 25.1306 41.7811L24.7418 39.8193ZM28.764 37.7035C27.6566 38.7835 26.2592 39.5186 24.7418 39.8193L25.1306 41.7811C27.0281 41.4051 28.7755 40.4859 30.1604 39.1354L28.764 37.7035ZM30.9801 33.7358C30.6414 35.2451 29.8715 36.6236 28.764 37.7035L30.1604 39.1354C31.5452 37.7849 32.508 36.0611 32.9315 34.1737L30.9801 33.7358ZM31.1604 31.5254C31.2032 32.2632 31.1436 33.0072 30.9801 33.7358L32.9315 34.1737C33.136 33.2626 33.2106 32.3322 33.1571 31.4097L31.1604 31.5254ZM30.672 29.2015C30.9512 29.9514 31.1146 30.7348 31.1604 31.5254L33.1571 31.4096C33.0998 30.4211 32.8954 29.4413 32.5463 28.5036L30.672 29.2015ZM30.726 30.2485L31.9581 29.7897L31.2602 27.9154L30.0281 28.3742L30.726 30.2485ZM29.4818 30.7118L30.726 30.2485L30.0281 28.3742L28.7839 28.8375L29.4818 30.7118ZM28.2498 31.1705L29.4818 30.7118L28.7839 28.8375L27.5519 29.2962L28.2498 31.1705ZM29.0705 33.3072C29.3262 32.1679 29.2454 30.9787 28.838 29.8844L26.9637 30.5823C27.2359 31.3135 27.2899 32.108 27.1191 32.8693L29.0705 33.3072ZM27.3977 36.3024C28.2337 35.4872 28.8148 34.4466 29.0705 33.3072L27.1191 32.8693C26.9482 33.6306 26.5599 34.3259 26.0013 34.8706L27.3977 36.3024ZM24.3614 37.8996C25.5068 37.6726 26.5617 37.1177 27.3977 36.3024L26.0013 34.8706C25.4427 35.4153 24.7379 35.786 23.9726 35.9377L24.3614 37.8996Z" fill="#0166F6" mask="url(#path-1-outside-1_3_164)"/>
</svg>